{
  "accessors": [
    {
      "bufferView": 2,
      "componentType": 5126,
      "count": 6604,
      "max": [
        1.0132907629013062,
        0.9364946484565735,
        5.532175540924072
      ],
      "min": [
        -1.0115888118743896,
        -1.0182546377182007,
        0.08098912239074707
      ],
      "type": "VEC3"
    },
    {
      "bufferView": 2,
      "byteOffset": 79248,
      "componentType": 5126,
      "count": 6604,
      "type": "VEC3"
    },
    {
      "bufferView": 3,
      "componentType": 5126,
      "count": 6604,
      "type": "VEC4"
    },
    {
      "bufferView": 1,
      "componentType": 5126,
      "count": 6604,
      "type": "VEC2"
    },
    {
      "bufferView": 1,
      "byteOffset": 52832,
      "componentType": 5126,
      "count": 6604,
      "type": "VEC2"
    },
    {
      "bufferView": 1,
      "byteOffset": 105664,
      "componentType": 5126,
      "count": 6604,
      "type": "VEC2"
    },
    {
      "bufferView": 0,
      "componentType": 5125,
      "count": 23586,
      "type": "SCALAR"
    },
    {
      "bufferView": 2,
      "byteOffset": 158496,
      "componentType": 5126,
      "count": 2171,
      "max": [
        1.1384726762771606,
        0.9871275424957275,
        5.577061653137207
      ],
      "min": [
        -1.1181892156600952,
        -1.1214518547058105,
        -0.0027627944946289063
      ],
      "type": "VEC3"
    },
    {
      "bufferView": 2,
      "byteOffset": 184548,
      "componentType": 5126,
      "count": 2171,
      "type": "VEC3"
    },
    {
      "bufferView": 3,
      "byteOffset": 105664,
      "componentType": 5126,
      "count": 2171,
      "type": "VEC4"
    },
    {
      "bufferView": 1,
      "byteOffset": 158496,
      "componentType": 5126,
      "count": 2171,
      "type": "VEC2"
    },
    {
      "bufferView": 1,
      "byteOffset": 175864,
      "componentType": 5126,
      "count": 2171,
      "type": "VEC2"
    },
    {
      "bufferView": 1,
      "byteOffset": 193232,
      "componentType": 5126,
      "count": 2171,
      "type": "VEC2"
    },
    {
      "bufferView": 0,
      "byteOffset": 94344,
      "componentType": 5125,
      "count": 4896,
      "type": "SCALAR"
    }
  ],
  "asset": {
    "generator": "fab-model-conversion",
    "version": "2.0"
  },
  "bufferViews": [
    {
      "buffer": 0,
      "byteLength": 113928,
      "target": 34963
    },
    {
      "buffer": 0,
      "byteLength": 210600,
      "byteOffset": 113928,
      "byteStride": 8,
      "target": 34962
    },
    {
      "buffer": 0,
      "byteLength": 210600,
      "byteOffset": 324528,
      "byteStride": 12,
      "target": 34962
    },
    {
      "buffer": 0,
      "byteLength": 140400,
      "byteOffset": 535128,
      "byteStride": 16,
      "target": 34962
    }
  ],
  "buffers": [
    {
      "byteLength": 675528,
      "uri": "scene.bin"
    }
  ],
  "images": [
    {
      "uri": "textures/Center_Cabinet_baseColor.png"
    },
    {
      "uri": "textures/Center_Cabinet_metallicRoughness.png"
    },
    {
      "uri": "textures/Center_Cabinet_normal.png"
    },
    {
      "uri": "textures/Outer_Cabinet_baseColor.png"
    },
    {
      "uri": "textures/Outer_Cabinet_metallicRoughness.png"
    },
    {
      "uri": "textures/Outer_Cabinet_normal.png"
    }
  ],
  "materials": [
    {
      "doubleSided": true,
      "name": "Center_Cabinet",
      "normalTexture": {
        "index": 2
      },
      "pbrMetallicRoughness": {
        "baseColorTexture": {
          "index": 0
        },
        "metallicRoughnessTexture": {
          "index": 1
        }
      }
    },
    {
      "doubleSided": true,
      "name": "Outer_Cabinet",
      "normalTexture": {
        "index": 5
      },
      "pbrMetallicRoughness": {
        "baseColorTexture": {
          "index": 3
        },
        "metallicRoughnessTexture": {
          "index": 4
        }
      }
    }
  ],
  "meshes": [
    {
      "name": "Cube.002_Center Cabinet_0",
      "primitives": [
        {
          "attributes": {
            "NORMAL": 1,
            "POSITION": 0,
            "TANGENT": 2,
            "TEXCOORD_0": 3,
            "TEXCOORD_1": 4,
            "TEXCOORD_2": 5
          },
          "indices": 6,
          "material": 0,
          "mode": 4
        }
      ]
    },
    {
      "name": "Cube.001_Outer Cabinet_0",
      "primitives": [
        {
          "attributes": {
            "NORMAL": 8,
            "POSITION": 7,
            "TANGENT": 9,
            "TEXCOORD_0": 10,
            "TEXCOORD_1": 11,
            "TEXCOORD_2": 12
          },
          "indices": 13,
          "material": 1,
          "mode": 4
        }
      ]
    }
  ],
  "nodes": [
    {
      "children": [
        1
      ],
      "matrix": [
        1.0,
        0.0,
        0.0,
        0.0,
        0.0,
        2.220446049250313e-16,
        -1.0,
        0.0,
        0.0,
        1.0,
        2.220446049250313e-16,
        0.0,
        0.0,
        0.0,
        0.0,
        1.0
      ],
      "name": "Sketchfab_model"
    },
    {
      "children": [
        2
      ],
      "matrix": [
        1.0,
        0.0,
        0.0,
        0.0,
        0.0,
        0.0,
        1.0,
        0.0,
        0.0,
        -1.0,
        0.0,
        0.0,
        0.0,
        0.0,
        0.0,
        1.0
      ],
      "name": "2c56f5d60a404827a53eb9ee7d966e0f.fbx"
    },
    {
      "children": [
        3,
        5
      ],
      "name": "RootNode"
    },
    {
      "children": [
        4
      ],
      "matrix": [
        100.0,
        0.0,
        0.0,
        0.0,
        0.0,
        -1.629206793918314e-05,
        -99.99999999999868,
        0.0,
        0.0,
        99.99999999999868,
        -1.629206793918314e-05,
        0.0,
        0.0,
        0.0,
        0.0,
        1.0
      ],
      "name": "Cube.002"
    },
    {
      "mesh": 0,
      "name": "Cube.002_Center Cabinet_0"
    },
    {
      "children": [
        6
      ],
      "matrix": [
        100.0,
        0.0,
        0.0,
        0.0,
        0.0,
        -1.629206793918314e-05,
        -99.99999999999868,
        0.0,
        0.0,
        99.99999999999868,
        -1.629206793918314e-05,
        0.0,
        0.0,
        0.0,
        0.0,
        1.0
      ],
      "name": "Cube.001"
    },
    {
      "mesh": 1,
      "name": "Cube.001_Outer Cabinet_0"
    }
  ],
  "samplers": [
    {
      "magFilter": 9729,
      "minFilter": 9987,
      "wrapS": 10497,
      "wrapT": 10497
    }
  ],
  "scene": 0,
  "scenes": [
    {
      "name": "Sketchfab_Scene",
      "nodes": [
        0
      ]
    }
  ],
  "textures": [
    {
      "sampler": 0,
      "source": 0
    },
    {
      "sampler": 0,
      "source": 1
    },
    {
      "sampler": 0,
      "source": 2
    },
    {
      "sampler": 0,
      "source": 3
    },
    {
      "sampler": 0,
      "source": 4
    },
    {
      "sampler": 0,
      "source": 5
    }
  ]
}
